<svg xmlns="http://www.w3.org/2000/svg" viewBox="0 0 800 600">
  <defs>
    <linearGradient id="bg" x1="0" y1="0" x2="1" y2="1">
      <stop offset="0%" stop-color="#5eead4"/>
      <stop offset="100%" stop-color="#6ee7b7"/>
    </linearGradient>
  </defs>
  <rect width="800" height="600" fill="url(#bg)"/>
  <text x="120" y="64" font-family="Arial, sans-serif" font-size="24" fill="#0f172a" font-weight="700">Easebook Social</text>
  <g transform="translate(96 96)">
    <rect width="608" height="432" rx="16" fill="#ffffff"/>
    <rect y="0" width="608" height="48" rx="16" fill="#0f172a"/>
    <circle cx="28" cy="24" r="7" fill="#f87171"/>
    <circle cx="54" cy="24" r="7" fill="#fbbf24"/>
    <circle cx="80" cy="24" r="7" fill="#34d399"/>
    <rect x="96" y="220" width="100" height="16" rx="8" fill="#e2e8f0"/>
    <rect x="96" y="252" width="120" height="14" rx="7" fill="#e2e8f0"/>
    <rect x="96" y="278" width="156" height="100" rx="10" fill="#ccfbf1"/>
    <rect x="96" y="396" width="156" height="12" rx="6" fill="#e2e8f0"/>
    <circle cx="360" cy="120" r="42" fill="#5eead4"/>
    <rect x="396" y="96" width="180" height="16" rx="8" fill="#e2e8f0"/>
    <rect x="396" y="150" width="140" height="12" rx="6" fill="#f1f5f9"/>
    <rect x="308" y="204" width="240" height="120" rx="10" fill="#a7f3d0"/>
    <rect x="330" y="350" width="196" height="66" rx="10" fill="#ffffff"/>
    <rect x="350" y="368" width="70" height="10" rx="5" fill="#e2e8f0"/>
    <rect x="350" y="388" width="90" height="10" rx="5" fill="#e2e8f0"/>
    <circle cx="440" cy="373" r="13" fill="#34d399"/>
  </g>
</svg>