<svg xmlns="http://www.w3.org/2000/svg" viewBox="0 0 800 600">
  <defs>
    <linearGradient id="bg" x1="0" y1="0" x2="1" y2="1">
      <stop offset="0%" stop-color="#fcd34d"/>
      <stop offset="100%" stop-color="#fdba74"/>
    </linearGradient>
  </defs>
  <rect width="800" height="600" fill="url(#bg)"/>
  <text x="120" y="64" font-family="Arial, sans-serif" font-size="24" fill="#1e293b" font-weight="700">TaskFlow Kanban</text>
  <g transform="translate(96 96)">
    <rect width="608" height="432" rx="16" fill="#ffffff"/>
    <rect y="0" width="608" height="48" rx="16" fill="#0f172a"/>
    <circle cx="28" cy="24" r="7" fill="#f87171"/>
    <circle cx="54" cy="24" r="7" fill="#fbbf24"/>
    <circle cx="80" cy="24" r="7" fill="#34d399"/>
    <rect x="56" y="96" width="168" height="300" rx="12" fill="#fff7ed"/>
    <rect x="240" y="96" width="168" height="300" rx="12" fill="#fefce8"/>
    <rect x="424" y="96" width="128" height="300" rx="12" fill="#fff7ed"/>
    <rect x="72" y="112" width="80" height="14" rx="7" fill="#0f172a"/>
    <rect x="72" y="144" width="136" height="66" rx="10" fill="#ffffff"/>
    <rect x="72" y="222" width="136" height="66" rx="10" fill="#ffffff"/>
    <rect x="72" y="300" width="136" height="66" rx="10" fill="#ffffff"/>
    <rect x="88" y="160" width="96" height="10" rx="5" fill="#e2e8f0"/>
    <circle cx="184" cy="160" r="10" fill="#fdba74"/>
    <rect x="88" y="238" width="104" height="10" rx="5" fill="#e2e8f0"/>
    <circle cx="184" cy="238" r="10" fill="#34d399"/>
    <rect x="256" y="112" width="80" height="14" rx="7" fill="#0f172a"/>
    <rect x="256" y="144" width="136" height="66" rx="10" fill="#ffffff"/>
    <rect x="256" y="222" width="136" height="66" rx="10" fill="#ffffff"/>
    <rect x="272" y="160" width="96" height="10" rx="5" fill="#e2e8f0"/>
    <circle cx="368" cy="160" r="10" fill="#f97316"/>
    <rect x="272" y="238" width="80" height="10" rx="5" fill="#e2e8f0"/>
    <circle cx="368" cy="238" r="10" fill="#eab308"/>
    <rect x="440" y="112" width="80" height="14" rx="7" fill="#0f172a"/>
    <rect x="440" y="144" width="96" height="66" rx="10" fill="#ffffff"/>
    <rect x="456" y="160" width="56" height="10" rx="5" fill="#e2e8f0"/>
    <rect x="440" y="222" width="96" height="66" rx="10" fill="#ffffff"/>
    <rect x="456" y="238" width="64" height="10" rx="5" fill="#e2e8f0"/>
  </g>
</svg>